<svg xmlns="http://www.w3.org/2000/svg" width="550" height="525" viewBox="0 0 550 525">
<g>
<path d="M 350.00 300.00 L 350.00 325.00 L 125.00 325.00 L 125.00 300.00 L 50.00 300.00 L 50.00 250.00 L 125.00 250.00 L 125.00 225.00 L 350.00 225.00 L 350.00 250.00 L 425.00 250.00 L 425.00 300.00 L 350.00 300.00 Z" fill="rgba(90,53,33,1)"/>
<path d="M 500.27 397.75 C500.23,398.68 503.24,399.00 512.11,399.00 L 524.00 399.00 L 524.00 301.06 L 500.50 300.43 L 525.00 300.00 L 525.00 400.00 L 500.00 400.00 L 500.00 425.00 L 450.00 425.00 L 450.00 450.00 L 425.00 450.00 L 425.00 475.00 L 375.00 475.00 L 375.00 500.00 L 100.00 500.00 L 100.00 475.00 L 50.00 475.00 L 50.00 450.00 L 25.00 450.00 L 25.00 250.00 L 50.00 250.00 L 50.00 225.00 L 125.00 225.00 L 125.00 200.00 L 350.00 200.00 L 350.00 225.00 L 440.95 225.00 L 431.25 225.34 C420.94,225.70 398.66,226.00 381.75,226.00 L 351.00 226.00 L 351.00 249.00 L 381.75 249.00 C398.66,249.00 420.94,249.30 431.25,249.66 L 450.00 250.32 L 450.00 275.00 L 500.00 275.00 L 499.57 300.50 L 498.94 276.03 L 449.50 275.50 L 449.22 263.25 L 448.94 251.00 L 426.00 251.00 L 426.00 275.50 C426.00,288.98 426.34,299.95 426.75,299.88 C427.16,299.82 432.52,299.82 438.66,299.88 L 449.83 300.00 L 450.16 311.54 C450.42,320.44 450.84,323.29 452.00,324.02 C453.28,324.83 453.24,324.97 451.75,324.98 C450.13,325.00 450.00,326.86 450.00,350.00 L 450.00 375.00 L 475.00 375.00 L 475.00 325.00 L 500.00 325.00 L 500.16 360.75 C500.24,380.41 500.29,397.06 500.27,397.75 ZM 50.00 276.05 C50.00,264.01 49.73,253.45 49.39,252.58 C48.89,251.27 46.86,251.00 37.39,251.00 L 26.00 251.00 L 26.00 299.75 L 35.97 299.93 C42.35,300.04 45.84,300.42 47.74,298.86 C49.53,297.40 49.93,294.25 50.00,287.61 L 50.00 300.00 L 121.50 300.00 L 88.22 300.24 L 51.50 300.50 L 51.22 311.92 C51.00,320.38 51.26,323.55 52.22,324.15 C52.92,324.60 58.29,324.98 64.14,324.98 C72.92,325.00 74.89,325.28 75.39,326.58 C75.73,327.45 76.00,360.96 76.00,401.05 L 76.00 473.94 L 88.25 474.22 L 100.50 474.50 L 101.06 499.00 L 174.92 499.00 C241.35,499.00 248.85,498.84 249.39,497.42 C250.36,494.90 250.07,478.65 249.02,477.00 C248.29,475.84 245.44,475.42 236.54,475.16 L 225.00 474.83 L 225.00 350.00 L 285.93 350.00 C341.17,350.00 347.01,349.85 348.50,348.35 C349.86,347.00 350.10,344.90 349.88,336.60 L 349.61 326.50 L 125.50 325.50 L 125.49 325.00 L 350.00 325.00 L 350.00 300.00 L 425.00 300.00 L 425.00 250.00 L 350.00 250.00 L 350.00 225.00 L 125.00 225.00 L 125.00 250.00 L 50.00 250.00 L 50.00 276.05 ZM 127.25 224.34 C129.05,225.06 345.53,225.12 347.42,224.39 C348.73,223.89 349.00,221.86 349.00,212.39 L 349.00 201.00 L 126.00 201.00 L 126.00 212.42 C126.00,220.61 126.35,223.98 127.25,224.34 ZM 351.00 313.06 L 351.00 324.90 L 386.41 324.97 C417.95,325.04 421.99,324.87 423.45,323.40 C425.71,321.15 425.58,301.44 423.30,300.56 C421.32,299.80 354.57,299.84 352.58,300.61 C351.26,301.11 351.00,303.18 351.00,313.06 ZM 51.00 226.00 L 51.00 249.00 L 87.39 249.00 C119.66,249.00 123.85,248.82 124.39,247.42 C125.18,245.36 125.18,229.64 124.39,227.58 C123.85,226.18 119.66,226.00 87.39,226.00 L 51.00 226.00 ZM 450.63 421.75 L 451.23 424.00 L 499.00 424.00 L 499.00 400.20 L 476.12 400.06 C459.05,399.95 453.11,399.68 451.06,402.38 C449.81,404.02 450.01,406.77 450.01,411.32 C450.02,415.82 450.30,420.51 450.63,421.75 ZM 124.94 300.00 L 125.00 300.00 L 125.00 302.71 L 124.94 300.00 Z" fill="rgba(235,220,194,1)"/>
<path d="M 100.50 474.50 L 88.25 474.22 L 76.00 473.94 L 76.00 401.05 C76.00,360.96 75.73,327.45 75.39,326.58 C74.89,325.28 72.92,325.00 64.14,324.98 C58.29,324.98 52.92,324.60 52.22,324.15 C51.26,323.55 51.00,320.38 51.22,311.92 L 51.50 300.50 L 88.22 300.24 L 124.94 299.98 L 125.22 312.74 L 125.50 325.50 L 349.61 326.50 L 349.88 336.60 C350.10,344.90 349.86,347.00 348.50,348.35 C347.01,349.85 341.17,350.00 285.93,350.00 L 225.00 350.00 L 225.00 474.83 L 236.54 475.16 C245.44,475.42 248.29,475.84 249.02,477.00 C250.07,478.65 250.36,494.90 249.39,497.42 C248.85,498.84 241.35,499.00 174.92,499.00 L 101.06 499.00 L 100.50 474.50 ZM 500.27 397.75 C500.29,397.06 500.24,380.41 500.16,360.75 L 500.00 325.00 L 451.54 325.00 C451.61,324.99 451.68,324.99 451.75,324.98 C453.24,324.97 453.28,324.83 452.00,324.02 C450.84,323.29 450.42,320.44 450.16,311.54 L 449.83 300.00 L 438.66 299.88 C432.52,299.82 427.16,299.82 426.75,299.88 C426.34,299.95 426.00,288.98 426.00,275.50 L 426.00 251.00 L 448.94 251.00 L 449.22 263.25 L 449.50 275.50 L 498.94 276.03 L 499.57 300.50 L 500.00 275.00 L 500.00 300.00 L 525.00 300.00 L 500.50 300.43 L 524.00 301.06 L 524.00 399.00 L 512.11 399.00 C503.24,399.00 500.23,398.68 500.27,397.75 ZM 127.25 224.34 C126.35,223.98 126.00,220.61 126.00,212.42 L 126.00 201.00 L 349.00 201.00 L 349.00 212.39 C349.00,221.86 348.73,223.89 347.42,224.39 C345.53,225.12 129.05,225.06 127.25,224.34 ZM 225.00 75.00 L 250.00 75.00 L 250.00 0.00 L 275.00 0.00 L 275.00 75.00 L 250.00 75.00 L 250.00 150.00 L 225.00 150.00 L 225.00 75.00 ZM 112.50 175.00 L 100.00 175.00 L 100.00 125.00 L 125.00 125.00 L 125.00 50.00 L 150.00 50.00 L 150.00 125.00 L 125.00 125.00 L 125.00 175.00 L 112.50 175.00 ZM 350.00 150.00 L 350.00 125.00 L 375.00 125.00 L 375.00 50.00 L 400.00 50.00 L 400.00 125.00 L 375.00 125.00 L 375.00 175.00 L 350.00 175.00 L 350.00 150.00 ZM 351.00 313.06 C351.00,303.18 351.26,301.11 352.58,300.61 C354.57,299.84 421.32,299.80 423.30,300.56 C425.58,301.44 425.71,321.15 423.45,323.40 C421.99,324.87 417.95,325.04 386.41,324.97 L 351.00 324.90 ZM 425.00 225.52 L 425.00 249.48 C413.48,249.21 395.77,249.00 381.75,249.00 L 351.00 249.00 L 351.00 226.00 L 381.75 226.00 C395.77,226.00 413.48,225.79 425.00,225.52 ZM 51.00 226.00 L 87.39 226.00 C119.66,226.00 123.85,226.18 124.39,227.58 C125.18,229.64 125.18,245.36 124.39,247.42 C123.85,248.82 119.66,249.00 87.39,249.00 L 51.00 249.00 L 51.00 226.00 ZM 450.63 421.75 C450.30,420.51 450.02,415.82 450.01,411.32 C450.01,406.77 449.81,404.02 451.06,402.38 C453.11,399.68 459.05,399.95 476.12,400.06 L 499.00 400.20 L 499.00 424.00 L 451.23 424.00 ZM 26.00 251.00 L 37.39 251.00 C46.86,251.00 48.89,251.27 49.39,252.58 C49.73,253.45 50.00,264.01 50.00,276.05 C50.00,291.00 50.35,296.73 47.74,298.86 C45.84,300.42 42.35,300.04 35.97,299.93 L 26.00 299.75 L 26.00 251.00 ZM 440.95 250.00 L 450.00 250.00 L 450.00 250.32 L 440.95 250.00 ZM 450.00 225.00 L 440.95 225.00 L 450.00 224.68 L 450.00 225.00 Z" fill="rgba(252,241,228,1)"/>
<path d="M 100.00 512.50 L 100.00 500.00 L 75.00 500.00 L 50.00 500.00 L 50.00 487.50 L 50.00 475.00 L 37.50 475.00 L 25.00 475.00 L 25.00 462.50 L 25.00 450.00 L 12.50 450.00 L 0.00 450.00 L 0.00 350.00 L 0.00 250.00 L 12.50 250.00 L 25.00 250.00 L 25.00 237.50 L 25.00 225.00 L 37.50 225.00 L 50.00 225.00 L 50.00 212.50 L 50.00 200.00 L 87.50 200.00 L 125.00 200.00 L 125.00 187.50 L 125.00 175.00 L 237.50 175.00 L 350.00 175.00 L 350.00 187.50 L 350.00 200.00 L 387.50 200.00 L 425.00 200.00 L 425.00 212.50 L 425.00 225.00 L 437.50 225.00 L 450.00 225.00 L 450.00 237.50 L 450.00 250.00 L 475.00 250.00 L 500.00 250.00 L 500.00 262.50 L 500.00 275.00 L 512.50 275.00 L 525.00 275.00 L 525.00 287.50 L 525.00 300.00 L 537.50 300.00 L 550.00 300.00 L 550.00 350.00 L 550.00 400.00 L 537.50 400.00 L 525.00 400.00 L 525.00 412.50 L 525.00 425.00 L 512.50 425.00 L 500.00 425.00 L 500.00 437.50 L 500.00 450.00 L 475.00 450.00 L 450.00 450.00 L 450.00 462.50 L 450.00 475.00 L 437.50 475.00 L 425.00 475.00 L 425.00 487.50 L 425.00 500.00 L 400.00 500.00 L 375.00 500.00 L 375.00 512.50 L 375.00 525.00 L 237.50 525.00 L 100.00 525.00 L 100.00 512.50 ZM 375.00 487.50 L 375.00 475.00 L 400.00 475.00 L 425.00 475.00 L 425.00 462.50 L 425.00 450.00 L 437.50 450.00 L 450.00 450.00 L 450.00 437.50 L 450.00 425.00 L 475.00 425.00 L 500.00 425.00 L 500.00 412.50 L 500.00 400.00 L 512.50 400.00 L 525.00 400.00 L 525.00 350.00 L 525.00 300.00 L 512.50 300.00 L 500.00 300.00 L 500.00 287.50 L 500.00 275.00 L 475.00 275.00 L 450.00 275.00 L 450.00 262.50 L 450.00 250.00 L 437.50 250.00 L 425.00 250.00 L 425.00 237.50 L 425.00 225.00 L 387.50 225.00 L 350.00 225.00 L 350.00 212.50 L 350.00 200.00 L 237.50 200.00 L 125.00 200.00 L 125.00 212.50 L 125.00 225.00 L 87.50 225.00 L 50.00 225.00 L 50.00 237.50 L 50.00 250.00 L 37.50 250.00 L 25.00 250.00 L 25.00 350.00 L 25.00 450.00 L 37.50 450.00 L 50.00 450.00 L 50.00 462.50 L 50.00 475.00 L 75.00 475.00 L 100.00 475.00 L 100.00 487.50 L 100.00 500.00 L 237.50 500.00 L 375.00 500.00 L 375.00 487.50 ZM 450.00 350.00 L 450.00 325.00 L 462.50 325.00 L 475.00 325.00 L 475.00 350.00 L 475.00 375.00 L 462.50 375.00 L 450.00 375.00 L 450.00 350.00 Z" fill="rgba(5,6,7,1)"/>
</g>
</svg>