<svg xmlns="http://www.w3.org/2000/svg" width="550" height="550" viewBox="0 0 550 550">
<g>
<path d="M 367.00 428.00 L 306.00 428.00 L 306.00 489.00 L 245.00 489.00 L 245.00 428.00 L 305.00 428.00 L 305.03 425.75 C305.05,424.51 305.03,411.93 305.00,397.79 C304.97,383.66 305.23,370.95 305.57,369.56 L 306.21 367.03 L 336.35 366.76 L 366.50 366.50 L 366.76 336.35 L 367.03 306.21 L 369.56 305.57 C370.95,305.23 383.66,304.97 397.79,305.00 C411.93,305.03 424.51,305.05 425.75,305.03 L 428.00 305.00 L 428.00 275.11 C428.00,248.77 428.19,245.14 429.58,244.61 C430.45,244.27 444.18,244.00 460.08,244.00 L 489.00 244.00 L 489.00 306.00 L 428.00 306.00 L 428.00 367.00 L 367.00 367.00 L 367.00 428.00 ZM 244.97 425.75 L 245.00 428.00 L 184.00 428.00 L 184.00 367.03 L 153.25 366.76 L 122.50 366.50 L 121.97 306.03 L 61.50 305.50 L 61.24 274.75 L 60.97 244.00 L 89.90 244.00 C105.82,244.00 119.55,244.27 120.42,244.61 C121.81,245.14 122.00,248.77 122.00,275.11 L 122.00 305.00 L 124.25 305.03 C125.49,305.05 138.07,305.03 152.21,305.00 C166.34,304.97 179.05,305.23 180.44,305.57 L 182.97 306.21 L 183.24 336.35 L 183.50 366.50 L 213.65 366.76 L 243.79 367.03 L 244.43 369.56 C244.77,370.95 245.03,383.66 245.00,397.79 C244.97,411.93 244.95,424.51 244.97,425.75 Z" fill="rgba(178,0,4,1)"/>
<path d="M 489.00 244.25 L 489.00 275.00 L 489.00 244.00 L 460.08 244.00 C444.18,244.00 430.45,244.27 429.58,244.61 C428.19,245.14 428.00,248.77 428.00,275.11 L 428.00 305.00 L 425.75 305.03 C424.51,305.05 411.93,305.03 397.79,305.00 C383.66,304.97 370.95,305.23 369.56,305.57 L 367.03 306.21 L 366.76 336.35 L 366.50 366.50 L 336.35 366.76 L 306.21 367.03 L 305.57 369.56 C305.23,370.95 304.97,383.66 305.00,397.79 C305.03,411.93 305.05,424.51 305.03,425.75 L 305.00 428.00 L 245.00 428.00 L 244.97 425.75 C244.95,424.51 244.97,411.93 245.00,397.79 C245.03,383.66 244.77,370.95 244.43,369.56 L 243.79 367.03 L 213.65 366.76 L 183.50 366.50 L 183.24 336.35 L 182.97 306.21 L 180.44 305.57 C179.05,305.23 166.34,304.97 152.21,305.00 C138.07,305.03 125.49,305.05 124.25,305.03 L 122.00 305.00 L 122.00 275.11 C122.00,248.77 121.81,245.14 120.42,244.61 C119.55,244.27 105.82,244.00 89.90,244.00 L 61.24 244.00 L 60.98 182.50 L 91.55 183.00 L 122.12 183.50 L 122.03 213.75 L 121.95 244.00 L 150.89 244.00 C166.81,244.00 180.55,244.27 181.42,244.61 C182.81,245.14 183.00,248.73 183.00,274.63 L 183.00 304.05 L 185.57 305.02 C187.01,305.57 200.33,306.00 216.07,306.00 L 244.00 306.00 L 244.00 333.93 C244.00,349.67 244.43,362.99 244.98,364.43 L 245.95 367.00 L 304.05 367.00 L 305.02 364.43 C305.57,362.99 306.00,349.67 306.00,333.93 L 306.00 306.00 L 333.93 306.00 C349.67,306.00 362.99,305.57 364.43,305.02 L 367.00 304.05 L 367.00 274.63 C367.00,248.73 367.19,245.14 368.58,244.61 C369.45,244.27 383.17,244.00 399.07,244.00 L 427.97 244.00 L 428.24 213.75 L 428.50 183.50 L 489.00 182.50 L 489.00 244.25 Z" fill="rgba(217,12,24,1)"/>
<path d="M 244.00 489.00 L 183.00 489.00 L 183.00 428.03 L 152.75 427.76 L 122.50 427.50 L 121.97 367.00 L 61.00 367.00 L 61.00 306.00 L 0.00 306.00 L 0.00 122.00 L 61.00 122.00 L 61.00 61.00 L 122.00 61.00 L 122.00 0.00 L 244.00 0.00 L 244.00 61.00 L 123.03 61.00 L 122.50 122.50 L 61.09 123.50 L 61.50 182.50 L 91.81 183.00 L 122.07 183.50 L 91.55 183.00 L 60.98 182.50 L 61.24 244.00 L 61.50 305.50 L 121.97 306.03 L 122.50 366.50 L 153.25 366.76 L 184.00 367.03 L 184.00 428.00 L 245.00 428.00 L 245.00 489.00 L 306.00 489.00 L 306.00 428.00 L 367.00 428.00 L 367.00 367.00 L 428.00 367.00 L 428.00 306.00 L 489.00 306.00 L 489.00 182.50 L 428.50 183.50 L 488.50 182.50 L 488.76 152.76 L 489.03 123.03 L 428.50 122.50 L 428.24 91.75 L 427.97 61.00 L 306.03 61.00 L 305.76 91.75 L 305.50 122.50 L 245.50 122.50 L 244.97 61.00 L 306.00 61.00 L 306.00 0.00 L 428.00 0.00 L 428.00 61.00 L 489.00 61.00 L 489.00 122.00 L 550.00 122.00 L 550.00 306.00 L 489.00 306.00 L 489.00 367.00 L 428.00 367.00 L 428.00 428.00 L 367.00 428.00 L 367.00 489.00 L 306.00 489.00 L 306.00 550.00 L 244.00 550.00 L 244.00 489.00 Z" fill="rgba(16,16,16,1)"/>
<path d="M 244.98 364.43 C244.43,362.99 244.00,349.67 244.00,333.93 L 244.00 306.00 L 216.07 306.00 C200.33,306.00 187.01,305.57 185.57,305.02 L 183.00 304.05 L 183.00 274.63 C183.00,248.73 182.81,245.14 181.42,244.61 C180.55,244.27 166.81,244.00 150.89,244.00 L 121.95 244.00 L 122.11 183.50 L 91.81 183.00 L 61.50 182.50 L 61.09 123.50 L 91.79 123.00 L 122.00 122.51 L 122.00 183.00 L 183.00 183.00 L 183.00 122.00 L 122.50 122.00 L 122.76 91.75 L 123.03 61.00 L 244.97 61.00 L 245.50 122.50 L 305.50 122.50 L 305.76 91.75 L 306.03 61.00 L 427.97 61.00 L 428.24 91.75 L 428.50 122.50 L 489.03 123.03 L 488.76 152.76 L 488.50 182.50 L 428.50 183.50 L 428.24 213.75 L 427.97 244.00 L 399.07 244.00 C383.17,244.00 369.45,244.27 368.58,244.61 C367.19,245.14 367.00,248.73 367.00,274.63 L 367.00 304.05 L 364.43 305.02 C362.99,305.57 349.67,306.00 333.93,306.00 L 306.00 306.00 L 306.00 333.93 C306.00,349.67 305.57,362.99 305.02,364.43 L 304.05 367.00 L 245.95 367.00 Z" fill="rgba(244,30,42,1)"/>
<path d="M 122.00 152.50 L 122.00 122.00 L 152.50 122.00 L 183.00 122.00 L 183.00 152.50 L 183.00 183.00 L 152.50 183.00 L 122.00 183.00 L 122.00 152.50 Z" fill="rgba(255,254,254,1)"/>
</g>
</svg>