<svg xmlns="http://www.w3.org/2000/svg" width="550" height="550" viewBox="0 0 550 550">
<g>
<path d="M 183.00 519.00 L 122.00 519.00 L 122.00 489.00 L 92.00 489.00 L 92.00 458.00 L 61.00 458.00 L 61.00 428.00 L 31.00 428.00 L 31.00 367.00 L 0.00 367.00 L 0.00 183.00 L 31.00 183.00 L 31.00 122.00 L 61.00 122.00 L 61.00 92.00 L 92.00 92.00 L 92.00 61.00 L 122.00 61.00 L 122.00 31.00 L 183.00 31.00 L 183.00 0.00 L 214.00 0.00 L 214.00 31.00 L 244.00 31.00 L 244.00 61.00 L 214.00 61.00 L 214.00 92.00 L 183.00 92.00 L 183.00 153.00 L 153.00 153.00 L 153.00 275.00 L 183.00 275.00 L 183.00 336.00 L 214.00 336.00 L 214.00 367.00 L 275.00 367.00 L 275.00 397.00 L 397.00 397.00 L 397.00 367.00 L 458.00 367.00 L 458.00 336.00 L 489.00 336.00 L 489.00 306.00 L 519.00 306.00 L 519.00 336.00 L 550.00 336.00 L 550.00 367.00 L 519.00 367.00 L 519.00 428.00 L 489.00 428.00 L 489.00 458.00 L 458.00 458.00 L 458.00 489.00 L 428.00 489.00 L 428.00 519.00 L 367.00 519.00 L 367.00 550.00 L 183.00 550.00 L 183.00 519.00 ZM 183.00 519.00 L 367.00 519.00 L 367.00 489.00 L 428.00 489.00 L 428.00 458.00 L 458.00 458.00 L 458.00 428.00 L 489.00 428.00 L 489.00 367.00 L 458.00 367.00 L 458.00 397.00 L 397.00 397.00 L 397.00 428.00 L 275.00 428.00 L 275.00 397.00 L 214.00 397.00 L 214.00 367.00 L 183.00 367.00 L 183.00 336.00 L 153.00 336.00 L 153.00 275.00 L 122.00 275.00 L 122.00 153.00 L 153.00 153.00 L 153.00 92.00 L 183.00 92.00 L 183.00 61.00 L 122.00 61.00 L 122.00 92.00 L 92.00 92.00 L 92.00 122.00 L 61.00 122.00 L 61.00 183.00 L 31.00 183.00 L 31.00 367.00 L 61.00 367.00 L 61.00 428.00 L 92.00 428.00 L 92.00 458.00 L 122.00 458.00 L 122.00 489.00 L 183.00 489.00 L 183.00 519.00 ZM 183.00 61.00 L 214.00 61.00 L 214.00 31.00 L 183.00 31.00 L 183.00 61.00 ZM 489.00 367.00 L 519.00 367.00 L 519.00 336.00 L 489.00 336.00 L 489.00 367.00 Z" fill="rgba(1,1,2,1)"/>
<path d="M 183.00 489.00 L 122.00 489.00 L 122.00 458.00 L 92.00 458.00 L 92.00 428.00 L 61.00 428.00 L 61.00 397.00 L 92.00 397.00 L 92.00 428.00 L 153.00 428.00 L 153.00 458.00 L 244.00 458.00 L 244.00 489.00 L 367.00 489.00 L 367.00 458.00 L 428.00 458.00 L 428.00 428.00 L 458.00 428.00 L 458.00 397.00 L 489.00 397.00 L 489.00 428.00 L 458.00 428.00 L 458.00 458.00 L 428.00 458.00 L 428.00 489.00 L 367.00 489.00 L 367.00 519.00 L 183.00 519.00 L 183.00 489.00 ZM 153.00 306.00 L 153.00 336.00 L 183.00 336.00 L 183.00 367.00 L 153.00 367.00 L 153.00 397.00 L 122.00 397.00 L 122.00 367.00 L 92.00 367.00 L 92.00 336.00 L 122.00 336.00 L 122.00 306.00 L 153.00 306.00 ZM 92.00 244.00 L 92.00 275.00 L 61.00 275.00 L 61.00 244.00 L 92.00 244.00 ZM 122.00 153.00 L 122.00 183.00 L 92.00 183.00 L 92.00 153.00 L 122.00 153.00 Z" fill="rgba(232,159,47,1)"/>
<path d="M 244.00 458.00 L 153.00 458.00 L 153.00 428.00 L 92.00 428.00 L 92.00 397.00 L 61.00 397.00 L 61.00 367.00 L 31.00 367.00 L 31.00 183.00 L 61.00 183.00 L 61.00 122.00 L 92.00 122.00 L 92.00 92.00 L 122.00 92.00 L 122.00 61.00 L 153.00 61.00 L 153.00 92.00 L 122.00 92.00 L 122.00 153.00 L 92.00 153.00 L 92.00 244.00 L 61.00 244.00 L 61.00 275.00 L 153.00 275.00 L 153.00 306.00 L 122.00 306.00 L 122.00 336.00 L 92.00 336.00 L 92.00 367.00 L 122.00 367.00 L 122.00 397.00 L 153.00 397.00 L 153.00 367.00 L 183.00 367.00 L 183.00 397.00 L 214.00 397.00 L 214.00 428.00 L 275.00 428.00 L 275.00 458.00 L 367.00 458.00 L 367.00 489.00 L 244.00 489.00 L 244.00 458.00 ZM 397.00 428.00 L 428.00 428.00 L 428.00 458.00 L 397.00 458.00 L 397.00 428.00 Z" fill="rgba(245,207,55,1)"/>
<path d="M 275.00 443.00 L 275.00 428.00 L 244.50 428.00 L 214.00 428.00 L 214.00 412.50 L 214.00 397.00 L 198.50 397.00 L 183.00 397.00 L 183.00 382.00 L 183.00 367.00 L 198.50 367.00 L 214.00 367.00 L 214.00 382.00 L 214.00 397.00 L 244.50 397.00 L 275.00 397.00 L 275.00 412.50 L 275.00 428.00 L 336.00 428.00 L 397.00 428.00 L 397.00 412.50 L 397.00 397.00 L 427.50 397.00 L 458.00 397.00 L 458.00 382.00 L 458.00 367.00 L 473.50 367.00 L 489.00 367.00 L 489.00 351.50 L 489.00 336.00 L 504.00 336.00 L 519.00 336.00 L 519.00 351.50 L 519.00 367.00 L 504.00 367.00 L 489.00 367.00 L 489.00 382.00 L 489.00 397.00 L 473.50 397.00 L 458.00 397.00 L 458.00 412.50 L 458.00 428.00 L 427.50 428.00 L 397.00 428.00 L 397.00 443.00 L 397.00 458.00 L 336.00 458.00 L 275.00 458.00 L 275.00 443.00 ZM 92.00 229.00 L 92.00 183.00 L 107.00 183.00 L 122.00 183.00 L 122.00 229.00 L 122.00 275.00 L 107.00 275.00 L 92.00 275.00 L 92.00 229.00 ZM 122.00 122.50 L 122.00 92.00 L 137.50 92.00 L 153.00 92.00 L 153.00 76.50 L 153.00 61.00 L 168.00 61.00 L 183.00 61.00 L 183.00 46.00 L 183.00 31.00 L 198.50 31.00 L 214.00 31.00 L 214.00 46.00 L 214.00 61.00 L 198.50 61.00 L 183.00 61.00 L 183.00 76.50 L 183.00 92.00 L 168.00 92.00 L 153.00 92.00 L 153.00 122.50 L 153.00 153.00 L 137.50 153.00 L 122.00 153.00 L 122.00 122.50 Z" fill="rgba(255,240,198,1)"/>
</g>
</svg>