<svg xmlns="http://www.w3.org/2000/svg" width="550" height="318" viewBox="0 0 550 318">
<g>
<path d="M 29.50 58.00 L 29.20 43.50 L 28.90 29.00 L 43.70 29.00 L 58.50 29.00 L 58.20 14.50 L 57.90 0.00 L 492.00 0.00 L 492.00 29.00 L 521.00 29.00 L 521.00 58.00 L 550.00 58.00 L 550.00 173.00 L 521.00 173.00 L 521.00 58.05 L 506.75 57.78 L 492.50 57.50 L 492.00 43.00 C491.73,35.03 491.14,27.94 490.69,27.25 C490.05,26.26 445.80,26.00 274.98,26.00 C63.53,26.00 60.05,26.03 59.04,27.93 C58.46,29.00 58.00,36.15 58.00,43.93 L 58.00 58.00 L 29.50 58.00 ZM 492.00 203.00 L 492.00 231.00 L 203.00 231.00 L 203.00 260.00 L 174.00 260.00 L 174.00 232.05 L 188.25 231.78 L 202.50 231.50 L 202.78 217.25 L 203.05 203.00 L 492.00 203.00 ZM 29.00 173.00 L 0.00 173.00 L 0.00 58.00 L 14.75 58.00 L 29.00 58.00 L 29.00 173.00 ZM 86.77 289.00 L 58.00 289.00 L 58.00 260.00 L 87.00 260.00 L 87.00 231.00 L 57.90 231.00 L 58.20 216.50 L 58.49 202.24 L 58.50 202.50 L 116.00 203.03 L 116.00 259.77 L 113.75 260.37 C112.51,260.70 106.01,260.98 99.30,260.99 L 87.11 261.00 L 86.80 274.75 C86.67,280.80 86.66,286.48 86.77,289.00 ZM 87.00 290.62 C87.73,291.89 91.60,292.00 116.12,292.00 C140.67,292.00 144.48,291.89 145.00,290.63 L 145.00 318.00 L 87.00 318.00 L 87.00 290.62 ZM 58.49 202.00 L 43.75 202.00 L 29.00 202.00 L 29.00 174.00 L 57.95 174.00 L 58.22 188.25 L 58.49 202.00 ZM 174.00 261.00 L 174.00 289.00 L 145.09 289.00 C145.10,286.48 145.07,280.80 145.01,274.75 L 144.87 261.00 L 174.00 261.00 ZM 521.00 174.00 L 521.00 202.00 L 492.00 202.00 L 492.00 174.00 L 521.00 174.00 Z" fill="rgba(0,0,0,1)"/>
<path d="M 58.75 29.00 C58.84,28.48 58.94,28.12 59.04,27.93 C60.05,26.03 63.53,26.00 274.98,26.00 C445.80,26.00 490.05,26.26 490.69,27.25 C490.81,27.43 490.93,28.05 491.06,29.00 L 58.75 29.00 ZM 86.87 290.25 C86.66,289.29 86.64,282.31 86.80,274.75 L 87.00 265.89 L 87.00 274.92 C87.00,285.11 87.33,288.97 88.25,289.35 C88.94,289.63 101.88,289.78 117.00,289.68 L 144.50 289.50 L 144.78 275.25 L 144.93 267.36 L 145.01 274.75 C145.08,282.31 145.11,289.29 145.07,290.25 C145.01,291.87 142.93,292.00 116.12,292.00 C89.41,292.00 87.21,291.87 86.87,290.25 Z" fill="rgba(1,1,1,1)"/>
<path d="M 88.25 289.35 C87.33,288.97 87.00,285.11 87.00,274.92 L 87.00 261.00 L 99.25 260.99 C105.99,260.98 112.51,260.70 113.75,260.37 L 116.00 259.77 L 116.00 203.03 L 58.50 202.50 L 58.22 188.25 L 57.95 174.00 L 57.98 174.00 L 58.24 130.75 L 58.50 87.50 L 70.50 87.25 C79.82,87.06 83.89,87.37 85.69,85.50 C87.38,83.75 87.06,80.06 87.22,72.24 L 87.50 58.50 L 462.50 58.50 L 462.78 72.24 C462.94,80.06 462.62,83.75 464.31,85.50 C466.11,87.37 470.18,87.06 479.50,87.25 L 491.50 87.50 L 491.78 100.96 C491.97,110.19 492.44,114.66 493.28,115.19 C493.95,115.62 500.23,115.98 507.23,115.98 L 519.97 116.00 L 520.25 145.25 C520.41,161.34 520.64,148.30 520.77,116.28 L 521.00 58.05 L 521.00 174.00 L 492.00 174.00 L 492.00 203.00 L 203.05 203.00 L 202.78 217.25 L 202.50 231.50 L 188.25 231.78 L 174.00 232.05 L 174.00 261.00 L 145.05 261.00 L 144.78 275.25 L 144.50 289.50 L 117.00 289.68 C101.88,289.78 88.94,289.63 88.25,289.35 Z" fill="rgba(254,254,254,1)"/>
<path d="M 29.00 116.00 L 29.00 58.00 L 43.50 58.00 L 58.00 58.00 L 58.00 43.50 L 58.00 29.00 L 274.97 29.00 L 491.95 29.00 L 492.22 43.25 L 492.50 57.50 L 506.75 57.78 L 521.00 58.05 L 520.77 116.28 C520.64,148.30 520.41,161.34 520.25,145.25 L 519.97 116.00 L 507.23 115.98 C500.23,115.98 493.95,115.62 493.28,115.19 C492.44,114.66 491.97,110.19 491.78,100.96 L 491.50 87.50 L 479.50 87.25 C461.42,86.89 463.11,88.40 462.78,72.24 L 462.50 58.50 L 275.00 58.50 L 87.50 58.50 L 87.22 72.24 C86.89,88.40 88.58,86.89 70.50,87.25 L 58.50 87.50 L 58.24 130.75 L 57.98 174.00 L 43.49 174.00 L 29.00 174.00 L 29.00 116.00 Z" fill="rgba(242,242,243,1)"/>
</g>
</svg>