<svg xmlns="http://www.w3.org/2000/svg" width="550" height="550" viewBox="0 0 550 550">
<g>
<path d="M 198.00 418.01 L 274.75 417.76 L 351.50 417.50 L 351.78 406.78 L 352.07 396.07 L 362.78 395.78 L 373.50 395.50 L 373.78 384.78 L 374.07 374.07 L 384.78 373.78 L 395.50 373.50 L 395.78 362.78 L 396.07 352.07 L 406.78 351.78 L 417.50 351.50 L 417.76 275.25 L 418.01 199.00 L 410.13 199.00 C405.80,199.00 400.84,198.72 399.12,198.38 L 396.00 197.75 L 396.00 187.48 C396.00,179.04 395.72,177.11 394.42,176.61 C393.55,176.27 388.60,176.00 383.42,176.00 L 374.00 176.00 L 374.00 155.07 L 352.50 154.50 L 352.22 143.75 L 351.93 133.00 L 325.22 133.00 C310.52,133.00 275.89,132.70 248.25,132.34 L 198.00 131.67 L 198.00 110.00 L 352.00 110.00 L 352.00 132.00 L 374.00 132.00 L 374.00 154.00 L 396.00 154.00 L 396.00 176.00 L 418.00 176.00 L 418.00 198.00 L 440.00 198.00 L 440.00 352.00 L 418.00 352.00 L 418.00 374.00 L 396.00 374.00 L 396.00 396.00 L 374.00 396.00 L 374.00 418.00 L 352.00 418.00 L 352.00 440.00 L 198.00 440.00 L 198.00 418.01 ZM 88.00 154.00 L 66.00 154.00 L 66.00 66.00 L 154.00 66.00 L 154.00 88.00 L 176.00 88.00 L 176.00 110.00 L 154.00 110.00 L 154.00 132.00 L 132.00 132.00 L 132.00 154.00 L 110.00 154.00 L 110.00 176.00 L 88.00 176.00 L 88.00 154.00 ZM 440.00 154.00 L 418.00 154.00 L 418.00 132.00 L 396.00 132.00 L 396.00 110.00 L 374.00 110.00 L 374.00 88.00 L 396.00 88.00 L 396.00 66.00 L 484.00 66.00 L 484.00 154.00 L 462.00 154.00 L 462.00 176.00 L 440.00 176.00 L 440.00 154.00 ZM 66.00 396.00 L 88.00 396.00 L 88.00 374.00 L 110.00 374.00 L 110.00 396.00 L 132.00 396.00 L 132.00 418.00 L 154.00 418.00 L 154.00 440.00 L 176.00 440.00 L 176.00 462.00 L 154.00 462.00 L 154.00 484.00 L 66.00 484.00 L 66.00 396.00 ZM 396.00 462.00 L 374.00 462.00 L 374.00 440.00 L 396.00 440.00 L 396.00 418.00 L 418.00 418.00 L 418.00 396.00 L 440.00 396.00 L 440.00 374.00 L 462.00 374.00 L 462.00 396.00 L 484.00 396.00 L 484.00 484.00 L 396.00 484.00 L 396.00 462.00 ZM 198.00 66.00 L 220.00 66.00 L 220.00 44.00 L 242.00 44.00 L 242.00 22.00 L 264.00 22.00 L 264.00 0.00 L 286.00 0.00 L 286.00 22.00 L 308.00 22.00 L 308.00 44.00 L 330.00 44.00 L 330.00 66.00 L 352.00 66.00 L 352.00 88.00 L 198.00 88.00 L 198.00 66.00 ZM 66.00 330.00 L 44.00 330.00 L 44.00 308.00 L 22.00 308.00 L 22.00 286.00 L 0.00 286.00 L 0.00 264.00 L 22.00 264.00 L 22.00 242.00 L 44.00 242.00 L 44.00 220.00 L 66.00 220.00 L 66.00 198.00 L 88.00 198.00 L 88.00 352.00 L 66.00 352.00 L 66.00 330.00 ZM 462.00 198.00 L 484.00 198.00 L 484.00 220.00 L 506.00 220.00 L 506.00 242.00 L 528.00 242.00 L 528.00 264.00 L 550.00 264.00 L 550.00 286.00 L 528.00 286.00 L 528.00 308.00 L 506.00 308.00 L 506.00 330.00 L 484.00 330.00 L 484.00 352.00 L 462.00 352.00 L 462.00 198.00 ZM 264.00 528.00 L 242.00 528.00 L 242.00 506.00 L 220.00 506.00 L 220.00 484.00 L 198.00 484.00 L 198.00 462.00 L 352.00 462.00 L 352.00 484.00 L 330.00 484.00 L 330.00 506.00 L 308.00 506.00 L 308.00 528.00 L 286.00 528.00 L 286.00 550.00 L 264.00 550.00 L 264.00 528.00 ZM 198.00 418.00 L 176.00 418.00 L 176.00 396.00 L 154.00 396.00 L 154.00 374.00 L 132.00 374.00 L 132.00 352.00 L 110.00 352.00 L 110.00 198.00 L 132.00 198.00 L 132.00 176.00 L 154.00 176.00 L 154.00 154.00 L 176.00 154.00 L 176.00 132.00 L 198.00 132.00 L 198.00 154.00 L 176.00 154.00 L 176.00 176.00 L 154.00 176.00 L 154.00 198.00 L 132.00 198.00 L 132.00 352.00 L 154.00 352.00 L 154.00 374.00 L 176.00 374.00 L 176.00 396.00 L 198.00 396.00 L 198.00 418.00 ZM 88.00 154.00 L 110.00 154.00 L 110.00 132.00 L 132.00 132.00 L 132.00 110.00 L 154.00 110.00 L 154.00 88.00 L 88.00 88.00 L 88.00 154.00 ZM 440.00 154.00 L 462.00 154.00 L 462.00 88.00 L 396.00 88.00 L 396.00 110.00 L 418.00 110.00 L 418.00 132.00 L 440.00 132.00 L 440.00 154.00 ZM 88.00 396.00 L 88.00 462.00 L 154.00 462.00 L 154.00 440.00 L 132.00 440.00 L 132.00 418.00 L 110.00 418.00 L 110.00 396.00 L 88.00 396.00 ZM 396.00 462.00 L 462.00 462.00 L 462.00 396.00 L 440.00 396.00 L 440.00 418.00 L 418.00 418.00 L 418.00 440.00 L 396.00 440.00 L 396.00 462.00 ZM 242.00 44.00 L 242.00 66.00 L 308.00 66.00 L 308.00 44.00 L 286.00 44.00 L 286.00 22.00 L 264.00 22.00 L 264.00 44.00 L 242.00 44.00 ZM 44.00 308.00 L 66.00 308.00 L 66.00 242.00 L 44.00 242.00 L 44.00 264.00 L 22.00 264.00 L 22.00 286.00 L 44.00 286.00 L 44.00 308.00 ZM 506.00 242.00 L 484.00 242.00 L 484.00 308.00 L 506.00 308.00 L 506.00 286.00 L 528.00 286.00 L 528.00 264.00 L 506.00 264.00 L 506.00 242.00 ZM 264.00 528.00 L 286.00 528.00 L 286.00 506.00 L 308.00 506.00 L 308.00 484.00 L 242.00 484.00 L 242.00 506.00 L 264.00 506.00 L 264.00 528.00 Z" fill="rgba(0,0,0,1)"/>
<path d="M 440.00 132.00 L 418.00 132.00 L 418.00 110.00 L 396.00 110.00 L 396.00 88.00 L 462.00 88.00 L 462.00 154.00 L 440.00 154.00 L 440.00 132.00 ZM 396.00 440.00 L 418.00 440.00 L 418.00 418.00 L 440.00 418.00 L 440.00 396.00 L 462.00 396.00 L 462.00 462.00 L 396.00 462.00 L 396.00 440.00 ZM 242.00 44.00 L 264.00 44.00 L 264.00 22.00 L 286.00 22.00 L 286.00 44.00 L 308.00 44.00 L 308.00 66.00 L 242.00 66.00 L 242.00 44.00 ZM 484.00 242.00 L 506.00 242.00 L 506.00 264.00 L 528.00 264.00 L 528.00 286.00 L 506.00 286.00 L 506.00 308.00 L 484.00 308.00 L 484.00 242.00 ZM 264.00 506.00 L 242.00 506.00 L 242.00 484.00 L 308.00 484.00 L 308.00 506.00 L 286.00 506.00 L 286.00 528.00 L 264.00 528.00 L 264.00 506.00 Z" fill="rgba(239,183,11,1)"/>
<path d="M 198.00 396.00 L 176.00 396.00 L 176.00 374.00 L 154.00 374.00 L 154.00 352.00 L 132.00 352.00 L 132.00 308.00 L 154.00 308.00 L 154.00 242.00 L 132.00 242.00 L 132.00 198.00 L 154.00 198.00 L 154.00 176.00 L 176.00 176.00 L 176.00 154.00 L 198.00 154.00 L 198.00 131.67 L 248.25 132.34 C275.89,132.70 310.52,133.00 325.22,133.00 L 351.93 133.00 L 352.22 143.75 L 352.50 154.50 L 374.00 155.07 L 374.00 176.00 L 383.42 176.00 C388.60,176.00 393.55,176.27 394.42,176.61 C395.72,177.11 396.00,179.04 396.00,187.48 L 396.00 197.75 L 399.12 198.38 C400.84,198.72 405.80,199.00 410.13,199.00 L 418.01 199.00 L 417.76 275.25 L 417.50 351.50 L 406.78 351.78 L 396.07 352.07 L 395.78 362.78 L 395.50 373.50 L 384.78 373.78 L 374.07 374.07 L 373.78 384.78 L 373.50 395.50 L 362.78 395.78 L 352.07 396.07 L 351.78 406.78 L 351.50 417.50 L 274.75 417.76 L 198.00 418.01 L 198.00 396.00 ZM 88.00 88.00 L 154.00 88.00 L 154.00 110.00 L 132.00 110.00 L 132.00 132.00 L 110.00 132.00 L 110.00 154.00 L 88.00 154.00 L 88.00 88.00 ZM 88.00 396.00 L 110.00 396.00 L 110.00 418.00 L 132.00 418.00 L 132.00 440.00 L 154.00 440.00 L 154.00 462.00 L 88.00 462.00 L 88.00 396.00 ZM 44.00 286.00 L 22.00 286.00 L 22.00 264.00 L 44.00 264.00 L 44.00 242.00 L 66.00 242.00 L 66.00 308.00 L 44.00 308.00 L 44.00 286.00 ZM 176.00 352.00 L 176.00 308.00 L 154.00 308.00 L 154.00 352.00 L 176.00 352.00 ZM 176.00 198.00 L 154.00 198.00 L 154.00 242.00 L 176.00 242.00 L 176.00 198.00 ZM 176.00 352.00 L 176.00 374.00 L 198.00 374.00 L 198.00 352.00 L 176.00 352.00 ZM 176.00 198.00 L 198.00 198.00 L 198.00 176.00 L 176.00 176.00 L 176.00 198.00 Z" fill="rgba(250,210,17,1)"/>
<path d="M 176.00 363.00 L 176.00 352.00 L 165.00 352.00 L 154.00 352.00 L 154.00 330.00 L 154.00 308.00 L 143.00 308.00 L 132.00 308.00 L 132.00 275.00 L 132.00 242.00 L 143.00 242.00 L 154.00 242.00 L 154.00 220.00 L 154.00 198.00 L 165.00 198.00 L 176.00 198.00 L 176.00 187.00 L 176.00 176.00 L 187.00 176.00 L 198.00 176.00 L 198.00 187.00 L 198.00 198.00 L 187.00 198.00 L 176.00 198.00 L 176.00 220.00 L 176.00 242.00 L 165.00 242.00 L 154.00 242.00 L 154.00 275.00 L 154.00 308.00 L 165.00 308.00 L 176.00 308.00 L 176.00 330.00 L 176.00 352.00 L 187.00 352.00 L 198.00 352.00 L 198.00 363.00 L 198.00 374.00 L 187.00 374.00 L 176.00 374.00 L 176.00 363.00 Z" fill="rgba(254,254,253,1)"/>
</g>
</svg>